<?xml version="1.0" standalone="no"?>
<!DOCTYPE svg PUBLIC "-//W3C//DTD SVG 20010904//EN"
 "http://www.w3.org/TR/2001/REC-SVG-20010904/DTD/svg10.dtd">
<svg version="1.0" xmlns="http://www.w3.org/2000/svg"
 width="500.000000pt" height="500.000000pt" viewBox="0 0 500.000000 500.000000"
 preserveAspectRatio="xMidYMid meet">
<metadata>
Created by potrace 1.11, written by Peter Selinger 2001-2013
</metadata>
<g transform="translate(0.000000,500.000000) scale(0.100000,-0.100000)"
fill="#000000" stroke="none">
<path d="M4050 4195 c-283 -63 -536 -214 -819 -490 -483 -470 -761 -1067 -761
-1634 0 -188 47 -396 119 -526 113 -205 140 -244 221 -326 70 -71 100 -94 170
-127 123 -59 185 -73 345 -79 115 -4 157 -1 235 15 222 46 402 149 566 326
156 167 246 354 247 511 1 95 -15 158 -49 192 -13 13 -29 44 -35 68 -13 52
-38 78 -71 73 -17 -2 -34 -24 -71 -93 -195 -362 -436 -630 -675 -749 -187 -94
-358 -84 -489 29 -35 30 -44 46 -62 114 -126 466 69 1130 483 1644 310 386
773 707 1020 707 43 0 46 -2 46 -26 0 -45 -27 -135 -90 -294 -86 -216 -110
-305 -110 -401 0 -89 19 -157 59 -209 14 -19 34 -52 43 -72 55 -123 170 -188
205 -118 7 14 50 120 96 235 46 116 101 251 122 300 34 79 39 102 43 191 5
115 -10 183 -60 274 -17 30 -42 78 -55 105 -69 138 -229 306 -329 345 -75 30
-246 37 -344 15z"/>
<path d="M1810 4169 c-52 -11 -216 -60 -365 -109 -274 -90 -430 -134 -520
-145 -88 -11 -104 -16 -110 -35 -7 -23 14 -76 48 -116 14 -17 29 -42 32 -57
10 -38 79 -113 133 -144 26 -15 49 -28 50 -29 2 -1 -32 -60 -76 -131 -339
-542 -715 -1321 -812 -1683 -24 -92 -29 -206 -10 -255 6 -16 28 -57 49 -90 21
-33 51 -82 66 -110 16 -27 65 -87 110 -132 64 -65 99 -91 161 -120 l79 -38
135 0 c112 1 153 5 242 28 383 95 756 339 875 572 49 96 60 129 72 218 12 85
-1 185 -34 252 -56 114 -103 194 -138 235 -20 24 -37 46 -37 49 0 3 26 19 58
36 170 88 363 236 508 388 159 166 243 309 285 484 44 181 17 428 -62 571 -17
31 -47 89 -67 127 -67 129 -178 214 -320 244 -81 17 -244 12 -352 -10z m525
-440 c25 -12 30 -21 33 -57 15 -206 -230 -520 -588 -754 -178 -117 -508 -270
-654 -304 l-30 -7 21 34 c277 456 386 689 400 851 l6 66 191 66 c238 81 248
84 354 107 99 21 220 21 267 -2z m-1410 -1555 c69 -21 196 -21 347 1 144 21
231 14 336 -28 l57 -22 -1 -47 c-1 -108 -146 -295 -331 -427 -214 -153 -575
-291 -759 -291 -37 0 -44 3 -44 20 0 31 55 195 111 332 55 135 219 478 228
478 3 0 29 -7 56 -16z"/>
</g>
</svg>
